# xmcd
#
# Track frame offsets:
#	150
#	11873
#	22036
#	34171
#	47716
#	56304
#	66174
#	79209
#	90047
#	101342
#	113260
#	124105
#
# Disc length: 1775 seconds
#
# Revision: 1
# Processed by: cddbd v1.5.2PL0 Copyright (c) Steve Scherf et al.
# Submitted via: audiograbber 1.83.01
#
DISCID=8906ed0c
DTITLE=Roy Drusky - Songs Of The Cities
DYEAR=1964
DGENRE=Country
TTITLE0=Detroit City
TTITLE1=Columbus Stockade Blues
TTITLE2=Kansas City
TTITLE3=El Paso
TTITLE4=Abilene
TTITLE5=Battle Of New Orleans
TTITLE6=Texardana Baby
TTITLE7=St. Louis Blues
TTITLE8=Birmingham Jail
TTITLE9=I Left My Heart In San Framcisico
TTITLE10=Chattanooga Shoe Shine Boy
TTITLE11=Waterloo
EXTD=
EXTT0=
EXTT1=
EXTT2=
EXTT3=
EXTT4=
EXTT5=
EXTT6=
EXTT7=
EXTT8=
EXTT9=
EXTT10=
EXTT11=
PLAYORDER=
